# xmcd
#
# Track frame offsets: 
#        150
#        12657
#        27676
#        47824
#        72317
#        87428
#        109051
#        132091
#        149514
#        171864
#
# Disc length: 2518 seconds
#
# Revision: 0
# Processed by: cddbd v1.5.2PL0 Copyright (c) Steve Scherf et al.
# Submitted via: ExactAudioCopy v1.3
#
DISCID=9409d40a
DTITLE=Murali Coryell - The Same Damn Thing
DYEAR=2008
DGENRE=Blues Rock
TTITLE0=In The Room With Jimi
TTITLE1=The Same Damn Thing
TTITLE2=The Blues Is Taking Its Place
TTITLE3=I Just Can't Stand It Anymore
TTITLE4=Way Too Expensive
TTITLE5=Standing The Test Of Time
TTITLE6=Calling From Another Phone
TTITLE7=Please Please Baby
TTITLE8=You're The Only One
TTITLE9=Fun Gonna Have A Good Time
EXTD=
EXTT0=
EXTT1=
EXTT2=
EXTT3=
EXTT4=
EXTT5=
EXTT6=
EXTT7=
EXTT8=
EXTT9=
PLAYORDER=
